<?xml version="1.0" encoding="utf-8"?>
<!-- Generator: Adobe Illustrator 26.1.0, SVG Export Plug-In . SVG Version: 6.00 Build 0)  -->
<svg version="1.1" id="Livello_1" xmlns="http://www.w3.org/2000/svg" xmlns:xlink="http://www.w3.org/1999/xlink" x="0px" y="0px"
	 viewBox="0 0 427.5 117.2" style="enable-background:new 0 0 427.5 117.2;" xml:space="preserve">
<style type="text/css">
	.st0{fill:#16173D;}
	.st1{fill:#FF7BAC;}
	.st2{fill:#7AC943;}
	.st3{fill:#4B64D8;}
	.st4{fill:#2FAFD0;}
	.st5{fill:#6719E0;}
	.st6{fill:#13FAC8;}
</style>
<g>
	<g>
		<g>
			<path class="st0" d="M121,40.5c-10,0-18.1,8.1-18.1,18.1s8.1,18.1,18.1,18.1c4.3,0,8.2-1.5,11.3-4v27.9h6.8v-42
				C139.2,48.6,131,40.5,121,40.5z M121,69.9c-6.2,0-11.3-5.1-11.3-11.3s5.1-11.3,11.3-11.3s11.3,5.1,11.3,11.3S127.3,69.9,121,69.9
				z"/>
			<path class="st0" d="M206.6,40.5c-10,0-18.1,8.1-18.1,18.1s8.1,18.1,18.1,18.1c4.3,0,8.2-1.5,11.3-4v4h6.8V58.6
				C224.7,48.6,216.6,40.5,206.6,40.5z M206.6,69.9c-6.2,0-11.3-5.1-11.3-11.3s5.1-11.3,11.3-11.3s11.3,5.1,11.3,11.3
				S212.9,69.9,206.6,69.9z"/>
			<path class="st0" d="M260.8,22.4v22.1c-3.1-2.5-7-4-11.3-4c-10,0-18.1,8.1-18.1,18.1s8.1,18.1,18.1,18.1c10,0,18.1-8.1,18.1-18.1
				V22.4H260.8z M249.5,69.9c-6.2,0-11.3-5.1-11.3-11.3s5.1-11.3,11.3-11.3s11.3,5.1,11.3,11.3S255.7,69.9,249.5,69.9z"/>
			<path class="st0" d="M175.1,40.5v4v14.1c0,6.2-5.1,11.3-11.3,11.3s-11.3-5.1-11.3-11.3V44.5v-4h-6.8v18.1
				c0,5.7,2.6,10.8,6.8,14.1c3.1,2.5,7,4,11.3,4c4.3,0,8.2-1.5,11.3-4c4.1-3.3,6.8-8.4,6.8-14.1V40.5H175.1z"/>
			<path class="st0" d="M314.3,40.5c-10,0-18.1,8.1-18.1,18.1s8.1,18.1,18.1,18.1c4.3,0,8.2-1.5,11.3-4v4h6.8V58.6
				C332.4,48.6,324.3,40.5,314.3,40.5z M314.3,69.9c-6.2,0-11.3-5.1-11.3-11.3s5.1-11.3,11.3-11.3s11.3,5.1,11.3,11.3
				S320.5,69.9,314.3,69.9z"/>
			<path class="st0" d="M397.2,77c-5.8,0-10.5-2.1-15.2-6.8l3.6-5c1.7,2.6,4.5,6.1,11.6,6.1c3.5,0,8.7-2.4,8.7-5.7
				c0-3.6-5.2-4.3-9.1-4.5c-5.5-0.4-14.8-2.3-14.8-10.2c0-7.3,8.6-10.6,14.8-10.6l0.3,0c4.6,0.1,8.7,1.7,12.4,4.8l-3.8,4.3
				c-2.8-2.4-5.4-3.4-8.5-3.4c-4.7,0-8.8,2-8.8,4.7c0,1.9,2.3,4.1,9,4.5c6.9,0.4,14.9,2.1,14.9,10.8C412.1,71.7,404.9,77,397.2,77z"
				/>
			<path class="st0" d="M375.2,58.6c0-10-8.1-18.1-18.1-18.1c-4.9,0-8.7,2-11.3,5.1v-5.1h-6.8v36.2h6.8V58.6h0
				c0-6.2,5.1-11.3,11.3-11.3s11.3,5.1,11.3,11.3v14.1v4h6.8L375.2,58.6L375.2,58.6L375.2,58.6z"/>
			<path class="st0" d="M292.5,47.3l4-6.3c-1.4-0.3-2.8-0.5-4.2-0.5c-5.2,0-8.9,2.2-11.3,5.7v-5.7h-6.8v36.2h6.8v-5.7V58.5
				c0.1-6.2,5.1-11.2,11.3-11.2C292.3,47.3,292.4,47.3,292.5,47.3z"/>
		</g>
		<g>
			<g>
				<path class="st1" d="M51.4,88C51.4,88,51.4,88,51.4,88c0.1,0,0.2,0,0.2,0C51.5,88,51.5,88,51.4,88C51.4,88,51.4,88,51.4,88z"/>
			</g>
			<g>
				<path class="st2" d="M51.4,74.4C51.4,74.4,51.4,74.4,51.4,74.4c0.1,0,0.2,0,0.2,0C51.5,74.4,51.5,74.4,51.4,74.4
					C51.4,74.4,51.4,74.4,51.4,74.4z"/>
			</g>
			<path class="st3" d="M25.6,46c0,9.7,4.7,18.4,12.1,23.7C32.4,65.6,29,59.1,29,51.9C29,39.5,39,29.4,51.5,29.4S74,39.5,74,51.9
				c0,10.5-7.2,19.3-16.9,21.8C70.2,70.8,80,59.1,80,45.1c0-13.4-9-24.7-21.2-28.2c-1.3-0.2-2.5-0.2-3.8-0.2
				C38.7,16.7,25.6,29.8,25.6,46z"/>
			<path class="st4" d="M54.9,16.7c1.3,0,2.6,0.1,3.8,0.2c-2.4-0.7-5-1.1-7.7-1.1c-0.1,0-0.3,0-0.4,0c-2.5,0-4.9,0.3-7.1,0.9
				c-12.7,3.2-22.2,14.7-22.2,28.4c0,14.9,11.1,27.2,25.5,29.1c1.3,0.2,2.5,0.2,3.8,0.2c0.1,0,0.3,0,0.4,0c-2.9-0.1-5.7-0.7-8.2-1.7
				c-1.8-0.8-3.6-1.8-5.2-3c-7.3-5.3-12.1-14-12.1-23.7C25.6,29.8,38.7,16.7,54.9,16.7z"/>
			<path class="st5" d="M51.6,74.4c2.3,0,4.6,0.2,6.8,0.7c5.2,1,10,3.1,14.2,6.1c9.1-6.6,15-17.2,15-29.3c0-12-5.8-22.6-14.8-29.1
				c-2-1.5-4.2-2.8-6.6-3.8c-4.5-2-9.5-3.1-14.7-3.1c-0.1,0-0.3,0-0.4,0c2.7,0,5.2,0.4,7.7,1.1C71,20.4,80,31.7,80,45.1
				c0,14-9.8,25.7-22.9,28.6c-1.9,0.4-3.9,0.7-6,0.7c0.1,0,0.2,0,0.3,0C51.4,74.4,51.4,74.4,51.6,74.4
				C51.5,74.4,51.5,74.4,51.6,74.4z"/>
			<path class="st6" d="M72.6,81.2c-5.9-4.3-13.2-6.8-21-6.8c0,0-0.1,0-0.1,0c0,0-0.1,0-0.1,0c-0.1,0-0.2,0-0.3,0
				c-0.1,0-0.3,0-0.4,0c-1.3,0-2.6-0.1-3.8-0.2C32.5,72.3,21.4,60,21.4,45.1c0-13.7,9.4-25.2,22.2-28.4c-16.1,3.6-28.2,18-28.2,35.2
				c0,12.1,5.9,22.7,15,29.3c5.9,4.3,13.2,6.8,21,6.8c0,0,0.1,0,0.1,0c0,0,0.1,0,0.1,0c9.1,0,17,5.5,20.5,13.4l9.9-10.3
				C79.5,87.3,76.3,83.9,72.6,81.2z"/>
		</g>
	</g>
</g>
</svg>
