<?xml version="1.0" encoding="utf-8"?>
<!-- Generator: Adobe Illustrator 23.0.1, SVG Export Plug-In . SVG Version: 6.00 Build 0)  -->
<svg version="1.1" id="Livello_1" xmlns="http://www.w3.org/2000/svg" xmlns:xlink="http://www.w3.org/1999/xlink" x="0px" y="0px"
	 viewBox="0 0 188.3 40.8" style="enable-background:new 0 0 188.3 40.8;" xml:space="preserve">
<style type="text/css">
	.st0{fill:#16173D;}
	.st1{fill:#FF7BAC;}
	.st2{fill:#7AC943;}
	.st3{fill:#4B64D8;}
	.st4{fill:#2FAFD0;}
	.st5{fill:#6719E0;}
	.st6{fill:#13FAC8;}
</style>
<g>
	<g>
		<g>
			<path class="st0" d="M67.5,34.5v2.4h3.2v0.8h-3.2v2.9h-0.8v-6.9h4.4v0.8H67.5L67.5,34.5z"/>
			<path class="st0" d="M84.8,37.2c0,1.9-1.6,3.5-3.6,3.5s-3.6-1.5-3.6-3.5c0-1.9,1.6-3.5,3.6-3.5C83.2,33.7,84.8,35.3,84.8,37.2z
				 M78.4,37.2c0,1.5,1.3,2.7,2.8,2.7s2.8-1.2,2.8-2.7s-1.2-2.7-2.8-2.7C79.7,34.5,78.4,35.7,78.4,37.2z"/>
			<path class="st0" d="M97.9,37.8c0,1.8-1.1,2.9-2.9,2.9s-2.9-1.1-2.9-2.9v-4H93v4c0,1.3,0.8,2.1,2.1,2.1s2.1-0.8,2.1-2.1v-4H98
				C97.9,33.8,97.9,37.8,97.9,37.8z"/>
			<path class="st0" d="M110.8,40.6l-4.1-5.5v5.5h-0.8v-6.9h0.8l4.1,5.5v-5.5h0.8v6.9C111.6,40.6,110.8,40.6,110.8,40.6z"/>
			<path class="st0" d="M122.6,33.8c2,0,3.5,1.5,3.5,3.4s-1.5,3.4-3.6,3.4h-2.7v-6.9L122.6,33.8L122.6,33.8z M120.6,39.9h2
				c1.5,0,2.7-1.2,2.7-2.7s-1.2-2.7-2.8-2.7h-2v5.4H120.6z"/>
			<path class="st0" d="M134,38.9l-0.8,1.7h-0.8l3.1-6.9h0.8l3.1,6.9h-0.9l-0.8-1.7H134z M135.9,34.7l-1.5,3.5h3.1L135.9,34.7z"/>
			<path class="st0" d="M148,34.5v6.1h-0.8v-6.1H145v-0.8h5.3v0.8H148z"/>
			<path class="st0" d="M157.5,40.6v-6.9h0.8v6.9H157.5z"/>
			<path class="st0" d="M172.9,37.2c0,1.9-1.6,3.5-3.6,3.5s-3.6-1.5-3.6-3.5c0-1.9,1.6-3.5,3.6-3.5
				C171.4,33.7,172.9,35.3,172.9,37.2z M166.6,37.2c0,1.5,1.3,2.7,2.8,2.7s2.8-1.2,2.8-2.7s-1.2-2.7-2.8-2.7S166.6,35.7,166.6,37.2z
				"/>
			<path class="st0" d="M185.4,40.6l-4.1-5.5v5.5h-0.8v-6.9h0.8l4.1,5.5v-5.5h0.8v6.9C186.1,40.6,185.4,40.6,185.4,40.6z"/>
		</g>
	</g>
	<g>
		<g>
			<path class="st0" d="M50.4,12c-4.7,0-8.6,3.8-8.6,8.6s3.8,8.6,8.6,8.6c2,0,3.9-0.7,5.4-1.9v13.2H59v-20C59,15.8,55.1,12,50.4,12z
				 M50.4,25.9c-3,0-5.3-2.4-5.3-5.4s2.4-5.3,5.3-5.3c3,0,5.3,2.4,5.3,5.3S53.3,25.9,50.4,25.9z"/>
			<path class="st0" d="M91,12c-4.7,0-8.6,3.8-8.6,8.6s3.8,8.6,8.6,8.6c2,0,3.9-0.7,5.4-1.9v1.9h3.2v-8.6C99.5,15.8,95.7,12,91,12z
				 M91,25.9c-2.9,0-5.3-2.4-5.3-5.4s2.4-5.3,5.3-5.3s5.3,2.4,5.3,5.3S93.9,25.9,91,25.9z"/>
			<path class="st0" d="M116.6,3.4v10.5c-1.5-1.2-3.3-1.9-5.4-1.9c-4.7,0-8.6,3.8-8.6,8.6s3.8,8.6,8.6,8.6c4.7,0,8.6-3.8,8.6-8.6
				V3.4H116.6z M111.2,25.9c-2.9,0-5.3-2.4-5.3-5.4s2.4-5.3,5.3-5.3s5.3,2.4,5.3,5.3S114.2,25.9,111.2,25.9z"/>
			<path class="st0" d="M76,12v1.9v6.7c0,3-2.4,5.4-5.4,5.4c-2.9,0-5.4-2.4-5.4-5.4v-6.7V12H62v8.6c0,2.7,1.2,5.1,3.2,6.7
				c1.5,1.2,3.3,1.9,5.4,1.9s3.9-0.7,5.4-1.9c1.9-1.6,3.2-4,3.2-6.7V12H76z"/>
			<path class="st0" d="M142,12c-4.7,0-8.6,3.8-8.6,8.6s3.8,8.6,8.6,8.6c2,0,3.9-0.7,5.4-1.9v1.9h3.2v-8.6
				C150.6,15.8,146.7,12,142,12z M142,25.9c-2.9,0-5.4-2.4-5.4-5.4s2.4-5.3,5.4-5.3c2.9,0,5.4,2.4,5.4,5.3S144.9,25.9,142,25.9z"/>
			<path class="st0" d="M181.3,29.3c-2.7,0-5-1-7.2-3.2l1.7-2.4c0.8,1.2,2.1,2.9,5.5,2.9c1.7,0,4.1-1.1,4.1-2.7c0-1.7-2.5-2-4.3-2.1
				c-2.6-0.2-7-1.1-7-4.9c0-3.5,4.1-5,7-5h0.1c2.2,0,4.1,0.8,5.9,2.3l-1.8,2c-1.3-1.1-2.6-1.6-4-1.6c-2.2,0-4.2,0.9-4.2,2.2
				c0,0.9,1.1,1.9,4.2,2.1c3.3,0.2,7.1,1,7.1,5.1C188.3,26.7,184.9,29.3,181.3,29.3z"/>
			<path class="st0" d="M170.9,20.5c0-4.7-3.8-8.6-8.6-8.6c-2.3,0-4.1,0.9-5.4,2.4V12h-3.2v17.2h3.2v-8.6l0,0c0-3,2.4-5.3,5.4-5.3
				s5.4,2.4,5.4,5.3v6.7v1.9h3.2L170.9,20.5L170.9,20.5L170.9,20.5z"/>
			<path class="st0" d="M131.6,15.2l1.9-3c-0.6-0.1-1.3-0.2-2-0.2c-2.5,0-4.2,1.1-5.3,2.7V12H123v17.2h3.2v-2.7v-5.9
				c0-2.9,2.4-5.3,5.3-5.3C131.6,15.2,131.6,15.2,131.6,15.2z"/>
		</g>
		<g>
			<path class="st1" d="M17.4,34.5L17.4,34.5C17.4,34.5,17.5,34.5,17.4,34.5C17.5,34.5,17.4,34.5,17.4,34.5L17.4,34.5z"/>
			<g>
				<path class="st2" d="M17.4,28L17.4,28C17.4,28,17.5,28,17.4,28C17.5,28,17.4,28,17.4,28L17.4,28z"/>
			</g>
			<path class="st3" d="M5.2,14.6c0,4.6,2.2,8.7,5.7,11.2c-2.5-2-4.1-5-4.1-8.4c0-5.9,4.8-10.7,10.7-10.7s10.7,4.8,10.7,10.7
				c0,5-3.4,9.2-8,10.3c6.2-1.4,10.9-6.9,10.9-13.6c0-6.3-4.2-11.7-10.1-13.4c-0.6-0.1-1.2-0.1-1.8-0.1C11.4,0.7,5.2,6.9,5.2,14.6z"
				/>
			<path class="st4" d="M19,0.7c0.6,0,1.2,0,1.8,0.1c-1.2-0.3-2.4-0.5-3.6-0.5c-0.1,0-0.1,0-0.2,0c-1.2,0-2.3,0.1-3.4,0.4
				c-6,1.5-10.5,7-10.5,13.5c0,7,5.3,12.9,12.1,13.8c0.6,0,1.2,0,1.8,0c0.1,0,0.1,0,0.2,0c-1.4,0-2.7-0.3-3.9-0.8
				c-0.9-0.4-1.7-0.9-2.4-1.4c-3.5-2.5-5.7-6.6-5.7-11.2C5.2,6.9,11.4,0.7,19,0.7z"/>
			<path class="st5" d="M17.5,28c1.1,0,2.2,0.1,3.2,0.3c2.5,0.5,4.7,1.5,6.7,2.9c4.3-3.1,7.1-8.2,7.1-13.9s-2.8-10.7-7-13.8
				c-1-0.7-2-1.3-3.1-1.8c-2.1-1-4.5-1.5-7-1.5c-0.1,0-0.1,0-0.2,0c1.3,0,2.5,0.2,3.6,0.5c5.8,1.7,10.1,7,10.1,13.4
				c0,6.6-4.6,12.2-10.9,13.6c-0.9,0.2-1.9,0.3-2.8,0.3C17.3,28,17.3,28,17.5,28C17.4,28,17.4,28,17.5,28C17.4,28,17.5,28,17.5,28z"
				/>
			<path class="st6" d="M27.4,31.3c-2.8-2-6.2-3.2-9.9-3.2l0,0l0,0h-0.1c-0.1,0-0.1,0-0.2,0c-0.6,0-1.2,0-1.8-0.1
				c-7-1-12.2-6.8-12.2-13.8c0-6.5,4.5-12,10.5-13.5C6,2.4,0.3,9.2,0.3,17.4c0,5.7,2.8,10.8,7.1,13.9c2.8,2,6.2,3.2,9.9,3.2l0,0l0,0
				c4.3,0,8,2.6,9.7,6.3l4.7-4.9C30.7,34.1,29.2,32.5,27.4,31.3z"/>
		</g>
	</g>
</g>
</svg>
